<svg width="68" height="68" viewBox="0 0 68 68" fill="none" xmlns="http://www.w3.org/2000/svg">
<path d="M0 0H67.08V67.08H0V0Z" fill="black"/>
<path d="M33.54 13.3636L2.62031 33.54L33.54 53.7164L64.4597 33.54L33.54 13.3636ZM33.54 20.4384C37.0148 20.4384 40.3472 21.8188 42.8042 24.2758C45.2612 26.7328 46.6416 30.0653 46.6416 33.54C46.6415 33.9782 46.6195 34.416 46.5755 34.852C40.2707 30.1128 32.0975 27.3131 24.4452 27.4615C23.5763 27.4786 22.7148 27.5357 21.863 27.63C22.955 25.4695 24.6242 23.6538 26.6854 22.3844C28.7466 21.1149 31.1192 20.4414 33.54 20.4384ZM24.9496 29.8362C32.2327 29.8536 40.2002 32.7263 46.049 37.4323C45.2187 40.1008 43.557 42.4338 41.3065 44.0907C39.056 45.7475 36.3346 46.6413 33.54 46.6416C30.0653 46.6416 26.7328 45.2612 24.2758 42.8042C21.8188 40.3472 20.4384 37.0148 20.4384 33.54C20.4436 32.3916 20.5998 31.2488 20.9029 30.1411C22.2146 29.9324 23.5696 29.8329 24.9496 29.8362Z" fill="white"/>
</svg>
