<svg width="68" height="68" viewBox="0 0 68 68" fill="none" xmlns="http://www.w3.org/2000/svg">
<path d="M10.062 28.509C10.062 27.5828 10.8128 26.832 11.739 26.832H15.093C16.0192 26.832 16.77 27.5828 16.77 28.509V31.863C16.77 32.7892 16.0192 33.54 15.093 33.54H11.739C10.8128 33.54 10.062 32.7892 10.062 31.863V28.509Z" fill="#333333"/>
<path d="M20.124 28.509C20.124 27.5828 20.8748 26.832 21.801 26.832H25.155C26.0812 26.832 26.832 27.5828 26.832 28.509V31.863C26.832 32.7892 26.0812 33.54 25.155 33.54H21.801C20.8748 33.54 20.124 32.7892 20.124 31.863V28.509Z" fill="#333333"/>
<path d="M11.739 36.894C10.8128 36.894 10.062 37.6448 10.062 38.571V41.925C10.062 42.8512 10.8128 43.602 11.739 43.602H15.093C16.0192 43.602 16.77 42.8512 16.77 41.925V38.571C16.77 37.6448 16.0192 36.894 15.093 36.894H11.739Z" fill="#333333"/>
<path d="M10.062 48.633C10.062 47.7068 10.8128 46.956 11.739 46.956H15.093C16.0192 46.956 16.77 47.7068 16.77 48.633V51.987C16.77 52.9132 16.0192 53.664 15.093 53.664H11.739C10.8128 53.664 10.062 52.9132 10.062 51.987V48.633Z" fill="#333333"/>
<path d="M21.801 36.894C20.8748 36.894 20.124 37.6448 20.124 38.571V41.925C20.124 42.8512 20.8748 43.602 21.801 43.602H25.155C26.0812 43.602 26.832 42.8512 26.832 41.925V38.571C26.832 37.6448 26.0812 36.894 25.155 36.894H21.801Z" fill="#333333"/>
<path d="M20.124 48.633C20.124 47.7068 20.8748 46.956 21.801 46.956H25.155C26.0812 46.956 26.832 47.7068 26.832 48.633V51.987C26.832 52.9132 26.0812 53.664 25.155 53.664H21.801C20.8748 53.664 20.124 52.9132 20.124 51.987V48.633Z" fill="#333333"/>
<path d="M51.987 30.186C51.0608 30.186 50.31 30.9368 50.31 31.863V35.217C50.31 36.1432 51.0608 36.894 51.987 36.894H55.341C56.2672 36.894 57.018 36.1432 57.018 35.217V31.863C57.018 30.9368 56.2672 30.186 55.341 30.186H51.987Z" fill="#333333"/>
<path d="M50.31 41.925C50.31 40.9988 51.0608 40.248 51.987 40.248H55.341C56.2672 40.248 57.018 40.9988 57.018 41.925V45.279C57.018 46.2052 56.2672 46.956 55.341 46.956H51.987C51.0608 46.956 50.31 46.2052 50.31 45.279V41.925Z" fill="#333333"/>
<path d="M51.987 50.31C51.0608 50.31 50.31 51.0608 50.31 51.987V55.341C50.31 56.2672 51.0608 57.018 51.987 57.018H55.341C56.2672 57.018 57.018 56.2672 57.018 55.341V51.987C57.018 51.0608 56.2672 50.31 55.341 50.31H51.987Z" fill="#333333"/>
<path fill-rule="evenodd" clip-rule="evenodd" d="M3.354 63.726H0V67.08H67.08V63.726H63.726V28.509C63.726 25.7304 61.4736 23.478 58.695 23.478H48.633V5.031C48.633 2.25246 46.3806 0 43.602 0H23.478C20.6994 0 18.447 2.25246 18.447 5.031V20.124H8.385C5.60646 20.124 3.354 22.3764 3.354 25.155V63.726ZM30.186 63.726V25.155C30.186 24.2288 29.4352 23.478 28.509 23.478H8.385C7.45881 23.478 6.708 24.2288 6.708 25.155V63.726H30.186ZM60.372 63.726V28.509C60.372 27.5828 59.6212 26.832 58.695 26.832H48.633V63.726H60.372ZM26.832 6.708C25.9058 6.708 25.155 7.45883 25.155 8.385V11.739C25.155 12.6652 25.9058 13.416 26.832 13.416H30.186C31.1122 13.416 31.863 12.6652 31.863 11.739V8.385C31.863 7.45883 31.1122 6.708 30.186 6.708H26.832ZM26.832 16.77C25.9058 16.77 25.155 17.5208 25.155 18.447V20.124H28.509C29.7976 20.124 30.9728 20.6085 31.863 21.4051V18.447C31.863 17.5208 31.1122 16.77 30.186 16.77H26.832ZM36.894 6.708C35.9678 6.708 35.217 7.45883 35.217 8.385V11.739C35.217 12.6652 35.9678 13.416 36.894 13.416H40.248C41.1742 13.416 41.925 12.6652 41.925 11.739V8.385C41.925 7.45883 41.1742 6.708 40.248 6.708H36.894ZM35.217 18.447C35.217 17.5208 35.9678 16.77 36.894 16.77H40.248C41.1742 16.77 41.925 17.5208 41.925 18.447V21.801C41.925 22.7272 41.1742 23.478 40.248 23.478H36.894C35.9678 23.478 35.217 22.7272 35.217 21.801V18.447ZM36.894 26.832C35.9678 26.832 35.217 27.5828 35.217 28.509V31.863C35.217 32.7892 35.9678 33.54 36.894 33.54H40.248C41.1742 33.54 41.925 32.7892 41.925 31.863V28.509C41.925 27.5828 41.1742 26.832 40.248 26.832H36.894ZM35.217 38.571C35.217 37.6448 35.9678 36.894 36.894 36.894H40.248C41.1742 36.894 41.925 37.6448 41.925 38.571V41.925C41.925 42.8512 41.1742 43.602 40.248 43.602H36.894C35.9678 43.602 35.217 42.8512 35.217 41.925V38.571ZM36.894 46.956C35.9678 46.956 35.217 47.7068 35.217 48.633V51.987C35.217 52.9132 35.9678 53.664 36.894 53.664H40.248C41.1742 53.664 41.925 52.9132 41.925 51.987V48.633C41.925 47.7068 41.1742 46.956 40.248 46.956H36.894Z" fill="#333333"/>
</svg>
