<svg width="68" height="68" viewBox="0 0 68 68" fill="none" xmlns="http://www.w3.org/2000/svg">
<path fill-rule="evenodd" clip-rule="evenodd" d="M6.708 63.726H46.956C48.8084 63.726 50.31 62.2244 50.31 60.372V6.708C50.31 4.85564 48.8084 3.354 46.956 3.354H6.708C4.85564 3.354 3.354 4.85564 3.354 6.708V60.372C3.354 62.2244 4.85564 63.726 6.708 63.726ZM46.956 67.08H6.708C3.00327 67.08 0 64.0767 0 60.372V6.708C0 3.00327 3.00327 0 6.708 0H46.956C50.6607 0 53.664 3.00327 53.664 6.708V60.372C53.664 64.0767 50.6607 67.08 46.956 67.08Z" fill="#333333"/>
<path fill-rule="evenodd" clip-rule="evenodd" d="M23.478 15.093C23.478 14.1668 24.2288 13.416 25.155 13.416H45.279C46.2052 13.416 46.956 14.1668 46.956 15.093C46.956 16.0192 46.2052 16.77 45.279 16.77H25.155C24.2288 16.77 23.478 16.0192 23.478 15.093Z" fill="#333333"/>
<path fill-rule="evenodd" clip-rule="evenodd" d="M23.478 21.801C23.478 20.8748 24.2288 20.124 25.155 20.124H45.279C46.2052 20.124 46.956 20.8748 46.956 21.801C46.956 22.7272 46.2052 23.478 45.279 23.478H25.155C24.2288 23.478 23.478 22.7272 23.478 21.801Z" fill="#333333"/>
<path fill-rule="evenodd" clip-rule="evenodd" d="M23.478 35.217C23.478 34.2908 24.2288 33.54 25.155 33.54H45.279C46.2052 33.54 46.956 34.2908 46.956 35.217C46.956 36.1432 46.2052 36.894 45.279 36.894H25.155C24.2288 36.894 23.478 36.1432 23.478 35.217Z" fill="#333333"/>
<path fill-rule="evenodd" clip-rule="evenodd" d="M23.478 41.925C23.478 40.9988 24.2288 40.248 25.155 40.248H45.279C46.2052 40.248 46.956 40.9988 46.956 41.925C46.956 42.8512 46.2052 43.602 45.279 43.602H25.155C24.2288 43.602 23.478 42.8512 23.478 41.925Z" fill="#333333"/>
<path fill-rule="evenodd" clip-rule="evenodd" d="M10.062 36.894V41.925H15.093V36.894H10.062ZM8.385 33.54H16.77C17.6962 33.54 18.447 34.2908 18.447 35.217V43.602C18.447 44.5282 17.6962 45.279 16.77 45.279H8.385C7.45883 45.279 6.708 44.5282 6.708 43.602V35.217C6.708 34.2908 7.45883 33.54 8.385 33.54Z" fill="#333333"/>
<path fill-rule="evenodd" clip-rule="evenodd" d="M19.6328 13.9072C20.2877 14.5621 20.2877 15.6239 19.6328 16.2788L11.739 24.1726L7.19918 19.6328C6.54427 18.9779 6.54427 17.9161 7.19918 17.2612C7.85409 16.6063 8.91591 16.6063 9.57082 17.2612L11.739 19.4294L17.2612 13.9072C17.9161 13.2523 18.9779 13.2523 19.6328 13.9072Z" fill="#333333"/>
<path fill-rule="evenodd" clip-rule="evenodd" d="M63.726 33.54H60.372V59.2539L62.049 61.4901L63.726 59.2539V33.54ZM67.08 60.372L62.049 67.08L57.018 60.372V30.186H67.08V60.372Z" fill="#333333"/>
<path fill-rule="evenodd" clip-rule="evenodd" d="M63.726 21.801H60.372V25.155H63.726V21.801ZM60.372 18.447H63.726C65.5784 18.447 67.08 19.9486 67.08 21.801V28.509H57.018V21.801C57.018 19.9486 58.5196 18.447 60.372 18.447Z" fill="#333333"/>
</svg>
