<svg width="48" height="48" viewBox="0 0 48 48" fill="none" xmlns="http://www.w3.org/2000/svg">
    <path
        d="M10.1449 14.2457C12.2816 14.1856 14.2087 14.2835 15.9807 14.4581C16.0981 14.4693 16.2127 14.4819 16.3287 14.4945C16.4475 14.507 16.5662 14.5182 16.6836 14.5322C17.8561 14.6636 18.9573 14.8243 20.0082 14.9934C20.0627 15.0017 20.1172 15.0101 20.1717 15.0199C20.1857 15.0227 20.1996 15.0241 20.2122 15.0269C24.3403 15.6921 27.69 16.4258 31.2829 15.7158C31.7469 15.6236 32.2122 15.5118 32.6734 15.3847C38.2017 13.8433 43.3584 9.97089 43.4268 9.91778C39.0668 3.9101 31.9928 0 24.0007 0C13.5966 0 4.74233 6.62117 1.41357 15.8794L1.55891 15.8262C2.50499 15.5034 4.78984 14.3939 10.1435 14.2443L10.1449 14.2457Z"
        fill="#1E90FF" />
    <path
        d="M29.6492 21.3155C29.55 21.3211 29.4466 21.3239 29.346 21.3294C29.2062 21.335 29.0679 21.342 28.9239 21.3462C28.7073 21.3532 28.4851 21.356 28.2615 21.3588C28.2322 21.3588 28.2056 21.3588 28.1763 21.3602C26.8151 21.3714 25.3352 21.3001 23.7212 21.131C23.6373 21.1226 23.5549 21.1142 23.471 21.1059C17.6143 20.607 13.0991 20.8152 9.70464 21.268C7.08579 21.6369 4.9896 22.1581 3.42444 22.6473C2.48395 22.9505 1.83833 23.2104 1.44704 23.3446C1.38695 23.3683 1.32686 23.3921 1.27096 23.4159C0.896438 23.578 0.0677432 23.9665 0.00625488 23.9944C0.0020625 23.9972 -0.000732422 23.9986 -0.000732422 23.9986C0.000665039 37.2549 10.7457 48 24.0007 48C37.2556 48 48.0007 37.2549 48.0007 24C48.0007 18.7455 46.3069 13.8894 43.4435 9.93594C43.4673 10.6011 43.519 20.5622 29.6492 21.3141V21.3155Z"
        fill="#1E90FF" />
    <path
        d="M1.43173 23.3516C1.43173 23.3516 1.44291 23.3474 1.4485 23.346C1.96836 23.1378 2.62796 22.8974 3.42591 22.6487C4.82477 22.1973 6.87624 21.6481 9.7061 21.2694C13.3129 20.7621 17.9092 20.5455 23.4725 21.1073C23.6025 21.1184 23.731 21.1296 23.8624 21.1408C25.4219 21.3015 26.8571 21.37 28.1791 21.3616C28.2085 21.3616 28.2364 21.3616 28.2644 21.3602C28.488 21.3588 28.7088 21.3546 28.9268 21.3476C29.0693 21.3434 29.2091 21.3364 29.3488 21.3308C29.4494 21.3267 29.5528 21.3225 29.6521 21.3169C43.779 20.5385 43.4534 10.235 43.4366 9.92477C43.4394 9.92896 43.4436 9.93455 43.4464 9.93875C43.4464 9.92617 43.4464 9.91639 43.4464 9.9108C43.3765 9.9639 38.2297 13.8488 32.679 15.386C32.2066 15.5174 31.7329 15.632 31.2577 15.7256C27.6635 16.4355 24.3347 15.6949 20.2164 15.0283C20.2024 15.0255 20.1899 15.0241 20.1759 15.0213C20.1214 15.0129 20.0669 15.0045 20.0124 14.9948C18.9601 14.8271 17.8589 14.665 16.6878 14.5336C16.5704 14.521 16.4516 14.5084 16.3329 14.4959C16.2169 14.4833 16.1023 14.4707 15.9849 14.4595C14.2409 14.289 12.3445 14.1954 10.2413 14.2541C4.90303 14.4036 2.34567 15.6013 1.40239 15.9227C1.40658 15.9087 1.41217 15.8961 1.41776 15.8821H1.41496C0.405996 18.5359 0.000732422 20.9913 0.000732422 24C0.000732422 24 0.00492481 23.9972 0.00771973 23.9972C0.0650156 23.9665 0.488446 23.7387 1.27242 23.4187C1.34509 23.3865 1.40239 23.3628 1.43173 23.353V23.3516Z"
        fill="white" />
    <path
        d="M20.2136 15.0255C24.3319 15.6921 27.6607 16.4341 31.255 15.7228C31.7287 15.6292 32.2038 15.5146 32.6762 15.3832C32.215 15.5118 31.7497 15.6236 31.2857 15.7144C27.6928 16.4243 24.3431 15.6907 20.215 15.0255H20.2136Z"
        fill="white" />
    <path
        d="M16.6836 14.5322C16.5662 14.5196 16.446 14.5071 16.3286 14.4945C16.4474 14.5071 16.5662 14.5182 16.6836 14.5322Z"
        fill="white" />
    <path
        d="M20.1716 15.0185C20.1171 15.0101 20.0626 15.0018 20.0081 14.992C20.0626 15.0004 20.1171 15.0087 20.1716 15.0185Z"
        fill="white" />
    <path
        d="M10.237 14.2527C12.3401 14.194 14.2365 14.2876 15.9805 14.4581C14.2085 14.2834 12.2814 14.1856 10.1447 14.2457C4.79105 14.3952 2.5062 15.5048 1.56012 15.8276L1.41479 15.8807C1.4092 15.8947 1.405 15.9073 1.39941 15.9213C2.3427 15.5998 4.90005 14.4022 10.2384 14.2527H10.237Z"
        fill="white" />
    <path
        d="M28.263 21.3588C28.2336 21.3588 28.2071 21.3588 28.1777 21.3602C28.2071 21.3602 28.235 21.3602 28.263 21.3588Z"
        fill="white" />
    <path
        d="M29.3459 21.328C29.2061 21.3336 29.0664 21.3406 28.9238 21.3448C29.0664 21.3406 29.2047 21.3336 29.3459 21.328Z"
        fill="white" />
    <path
        d="M29.6492 21.3155C43.519 20.5636 43.4673 10.6025 43.4435 9.93734C43.4407 9.93315 43.4365 9.92756 43.4337 9.92337C43.4505 10.2336 43.7761 20.5371 29.6492 21.3155Z"
        fill="white" />
    <path
        d="M3.42589 22.6487C2.62794 22.8988 1.96834 23.1392 1.44849 23.346C1.83978 23.2118 2.4854 22.9519 3.42589 22.6487Z"
        fill="white" />
    <path
        d="M9.70605 21.268C13.1005 20.8138 17.6157 20.6056 23.4724 21.1059C17.9092 20.5441 13.3129 20.7607 9.70605 21.268Z"
        fill="white" />
</svg>