<svg width="68" height="61" viewBox="0 0 68 61" fill="none" xmlns="http://www.w3.org/2000/svg">
<path d="M64.1634 22.5901L57.4994 8.15165C57.9854 7.71085 58.3746 7.17394 58.6423 6.57497C58.9099 5.97583 59.0503 5.32776 59.0544 4.67165C59.0503 3.6068 58.6841 2.57504 58.0157 1.74607C57.3474 0.917094 56.4166 0.34026 55.3769 0.110484C54.3371 -0.119292 53.2502 0.0116365 52.2947 0.481769C51.3393 0.951884 50.5723 1.73319 50.1198 2.69716L16.4302 11.2614C15.5992 10.5466 14.5399 10.1526 13.4439 10.1508C12.4929 10.1444 11.5627 10.4288 10.7779 10.9659C9.993 11.503 9.39116 12.2671 9.05277 13.1559C8.71448 14.0446 8.65587 15.0157 8.88491 15.9387C9.11392 16.8617 9.61945 17.6927 10.3341 18.3202L3.49741 33.1288L23.3657 33.0547L16.5536 18.2462C17.2796 17.5954 17.7806 16.7314 17.9852 15.778L30.153 12.693V50.6029H29.906L13.4686 55.7121C12.9428 55.8785 12.4832 56.2067 12.1552 56.65C11.8272 57.0931 11.6477 57.6288 11.6421 58.18V58.3529C11.6208 58.6999 11.673 59.0474 11.7954 59.3729C11.9177 59.6982 12.1075 59.9941 12.3521 60.2412C12.5969 60.4882 12.8908 60.6808 13.2152 60.8061C13.5394 60.9315 13.8864 60.9871 14.2336 60.969H53.4518C53.7968 60.9867 54.1417 60.9318 54.4641 60.8079C54.7865 60.684 55.0794 60.4937 55.3236 60.2495C55.5679 60.0051 55.7581 59.7124 55.8822 59.3898C56.0062 59.0673 56.061 58.7225 56.0433 58.3775V58.18C56.0395 57.6318 55.8636 57.0985 55.5403 56.6557C55.2169 56.2128 54.7627 55.8826 54.2415 55.7121L37.8287 50.6029H37.5572V11.1135L50.6876 7.63338L51.1811 8.15165L44.4926 22.6394C45.9696 22.6394 62.8098 22.5901 64.1634 22.5901ZM7.56977 33.1288L13.4439 20.3935L19.2364 33.0721L7.56977 33.1288ZM54.4637 10.2249L60.1898 22.5653H48.6636L54.4637 10.2249Z" fill="#333333"/>
<path fill-rule="evenodd" clip-rule="evenodd" d="M13.4498 42.5332C17.6318 42.5332 21.2058 39.9306 22.6406 36.2567C19.2108 36.2567 17.0211 36.2567 15.1595 36.2567C12.0374 36.2569 9.83805 36.2569 4.25903 36.2567C5.69383 39.9306 9.26796 42.5332 13.4498 42.5332ZM0.483511 36.2567C0.168373 35.1149 0 33.9121 0 32.6701H3.58661C9.68024 32.6702 11.9247 32.6702 15.1808 32.6701H23.3129H26.8996V32.6749C26.8992 33.9152 26.7308 35.1163 26.4161 36.2567C24.8464 41.9436 19.6358 46.1199 13.4498 46.1199C7.26373 46.1199 2.0531 41.9436 0.483511 36.2567Z" fill="#333333"/>
<path fill-rule="evenodd" clip-rule="evenodd" d="M53.6302 32.3041C57.8122 32.3041 61.3863 29.7014 62.8209 26.0275C59.3912 26.0275 57.2016 26.0275 55.3399 26.0275C52.2178 26.0277 50.0183 26.0277 44.4393 26.0275C45.8742 29.7014 49.4482 32.3041 53.6302 32.3041ZM40.6639 26.0275C40.3488 24.8857 40.1804 23.6829 40.1804 22.4409H43.767C49.8607 22.4411 52.1052 22.4411 55.3613 22.4409H63.4934H67.08V22.4457C67.0795 23.686 66.9112 24.8871 66.5965 26.0275C65.0268 31.7144 59.8162 35.8907 53.6302 35.8907C47.444 35.8907 42.2334 31.7144 40.6639 26.0275Z" fill="#333333"/>
</svg>
