<svg width="68" height="68" viewBox="0 0 68 68" fill="none" xmlns="http://www.w3.org/2000/svg">
<path d="M9.58286 9.58286C9.58286 4.29039 13.8732 0 19.1657 0C24.4582 0 28.7486 4.29039 28.7486 9.58286C28.7486 12.6722 27.2867 15.4201 25.017 17.1725C24.9487 17.2228 24.8809 17.2738 24.8135 17.3253C23.2298 18.4826 21.2775 19.1657 19.1657 19.1657C13.8732 19.1657 9.58286 14.8753 9.58286 9.58286ZM19.1657 4.79143C16.5195 4.79143 14.3743 6.93665 14.3743 9.58286C14.3743 12.2291 16.5195 14.3743 19.1657 14.3743C21.8119 14.3743 23.9571 12.2291 23.9571 9.58286C23.9571 6.93665 21.8119 4.79143 19.1657 4.79143Z" fill="#212121"/>
<path d="M42.063 17.1725C39.7933 15.4201 38.3314 12.6722 38.3314 9.58286C38.3314 4.29039 42.6218 0 47.9143 0C53.2069 0 57.4971 4.29039 57.4971 9.58286C57.4971 14.8753 53.2069 19.1657 47.9143 19.1657C45.8027 19.1657 43.8502 18.4826 42.2665 17.3254C42.1991 17.2738 42.1313 17.2228 42.063 17.1725ZM47.9143 4.79143C45.268 4.79143 43.1229 6.93665 43.1229 9.58286C43.1229 12.2291 45.268 14.3743 47.9143 14.3743C50.5606 14.3743 52.7057 12.2291 52.7057 9.58286C52.7057 6.93665 50.5606 4.79143 47.9143 4.79143Z" fill="#212121"/>
<path d="M7.18705 23.9571H19.9837C19.4539 25.4558 19.1657 27.0685 19.1657 28.7486H7.18705C5.86409 28.7486 4.79143 29.8212 4.79143 31.1443C4.79143 35.0585 6.34639 37.9612 8.80712 39.9363C9.93857 40.8445 11.2936 41.5799 12.8253 42.1145C11.7127 43.3001 10.8387 44.7122 10.2799 46.2737C8.65097 45.611 7.14392 44.7452 5.80793 43.6729C2.19912 40.7764 0 36.4919 0 31.1443C0 27.1751 3.21773 23.9571 7.18705 23.9571Z" fill="#212121"/>
<path d="M25.2391 23.9571C24.4238 25.3666 23.9571 27.0031 23.9571 28.7486C23.9571 32.7903 26.4593 36.2477 29.9992 37.656C31.0946 38.0918 32.2893 38.3314 33.54 38.3314C34.7907 38.3314 35.9855 38.0918 37.0809 37.656C40.6207 36.2476 43.1229 32.7903 43.1229 28.7486C43.1229 27.0031 42.6562 25.3666 41.8409 23.9571C40.1839 21.0928 37.087 19.1657 33.54 19.1657C29.993 19.1657 26.8961 21.0928 25.2391 23.9571ZM32.4649 24.0782C32.8106 23.999 33.1704 23.9571 33.54 23.9571C33.9096 23.9571 34.2694 23.999 34.6151 24.0782C36.7436 24.5662 38.3314 26.472 38.3314 28.7486C38.3314 29.1182 38.2896 29.478 38.2103 29.8236C37.7224 31.9522 35.8166 33.54 33.54 33.54C31.2634 33.54 29.3576 31.9522 28.8697 29.8236C28.7904 29.4781 28.7486 29.1182 28.7486 28.7486C28.7486 26.472 30.3364 24.5662 32.4649 24.0782Z" fill="#212121"/>
<path d="M58.2729 39.9363C57.1416 40.8445 55.7866 41.5799 54.2548 42.1145C55.3674 43.3001 56.2413 44.7122 56.8 46.2737C58.4291 45.611 59.936 44.7452 61.2723 43.6729C64.8807 40.7764 67.08 36.4919 67.08 31.1443C67.08 27.1749 63.8621 23.9571 59.8929 23.9571H47.0964C47.6258 25.4558 47.9143 27.0685 47.9143 28.7486H59.8929C61.2158 28.7486 62.2886 29.8212 62.2886 31.1443C62.2886 35.0585 60.7338 37.9612 58.2729 39.9363Z" fill="#212121"/>
<path d="M45.5186 43.1229C48.5175 43.1229 51.0872 44.9594 52.1648 47.5693C52.5131 48.414 52.7057 49.3397 52.7057 50.31C52.7057 55.6577 50.5064 59.9422 46.898 62.8386C43.3461 65.6895 38.5858 67.08 33.54 67.08C28.4942 67.08 23.734 65.6895 20.1822 62.8386C16.5734 59.9422 14.3743 55.6577 14.3743 50.31C14.3743 49.3397 14.5667 48.414 14.9153 47.5693C15.9927 44.9594 18.5626 43.1229 21.5613 43.1229H45.5186ZM45.5186 47.9143H21.5613C20.2384 47.9143 19.1657 48.9871 19.1657 50.31C19.1657 54.2241 20.7207 57.1268 23.1814 59.1018C25.6992 61.1228 29.3239 62.2886 33.54 62.2886C37.7561 62.2886 41.3808 61.1228 43.8986 59.1018C46.3595 57.1268 47.9143 54.2241 47.9143 50.31C47.9143 48.9871 46.8415 47.9143 45.5186 47.9143Z" fill="#212121"/>
</svg>
